<svg width="81" height="80" viewBox="0 0 81 80" fill="none" xmlns="http://www.w3.org/2000/svg">
<g clip-path="url(#clip0)">
<path d="M75.3582 44.8342L73.2865 36.5475C73.8529 36.4272 74.2779 35.9247 74.2779 35.3227V33.9866C74.2779 31.0856 71.9177 28.7256 69.017 28.7256H59.5807V25.9699C59.5807 24.5424 58.4195 23.3811 56.992 23.3811H39.446L50.1085 19.1161C50.7509 18.8592 51.0632 18.1302 50.8063 17.4878C50.5495 16.8456 49.8209 16.533 49.1781 16.79L40.4477 20.282C43.1081 18.5752 45.7401 16.6966 46.7421 15.3828C48.6929 12.8252 48.1988 9.15736 45.6412 7.20657C43.0835 5.25564 39.4157 5.74986 37.4649 8.30751C36.0396 10.1766 34.159 15.4283 32.9418 19.1291C31.7246 15.4286 29.844 10.1766 28.4187 8.30751C26.4681 5.74986 22.8001 5.25595 20.2424 7.20657C17.6848 9.1572 17.1909 12.825 19.1415 15.3828C20.1435 16.6967 22.7754 18.5752 25.4359 20.282L16.7056 16.79C16.0629 16.5327 15.3342 16.8455 15.0773 17.4878C14.8202 18.1302 15.1327 18.8592 15.7751 19.1161L26.4376 23.3811H8.89165C7.46415 23.3811 6.3029 24.5424 6.3029 25.9699V48.6839C6.3029 49.3756 6.86368 49.9366 7.55556 49.9366C8.24728 49.9366 8.80821 49.3758 8.80821 48.6839V25.9699C8.80821 25.9238 8.84556 25.8864 8.89165 25.8864H56.9918C57.0379 25.8864 57.0752 25.9238 57.0752 25.9699V48.6842C57.0752 49.3759 57.636 49.9369 58.3279 49.9369C59.0196 49.9369 59.5806 49.3761 59.5806 48.6842V47.2642H74.3565C74.3579 47.2642 74.359 47.2645 74.3604 47.2645C74.3618 47.2645 74.3631 47.2644 74.3645 47.2644C76.1826 47.2658 77.7263 48.4592 78.2563 50.1036H74.3613C73.6696 50.1036 73.1087 50.6644 73.1087 51.3563V54.0285C73.1087 56.1927 74.8693 57.9533 77.0335 57.9533H78.4532V63.4647H75.1779C74.102 60.3581 71.1487 58.1202 67.6807 58.1202C64.2127 58.1202 61.2593 60.358 60.1835 63.4647H59.5804V54.0283C59.5804 53.3366 59.0196 52.7756 58.3277 52.7756C57.636 52.7756 57.0751 53.3364 57.0751 54.0283V63.4645H31.0862C30.0102 60.358 27.057 58.12 23.589 58.12C20.121 58.12 17.1676 60.3578 16.0918 63.4645H8.89165C8.84556 63.4645 8.80821 63.4272 8.80821 63.3811V60.6253H14.2362C14.9279 60.6253 15.4888 60.0645 15.4888 59.3727C15.4888 58.6808 14.9281 58.12 14.2362 58.12H2.21118C1.51946 58.12 0.958527 58.6808 0.958527 59.3727C0.958527 60.0645 1.51931 60.6253 2.21118 60.6253H6.30306V63.3811C6.30306 64.8086 7.46431 65.9699 8.89181 65.9699H15.6581C15.6577 65.9977 15.6559 66.0253 15.6559 66.0533C15.6559 70.4275 19.2148 73.9864 23.589 73.9864C27.9632 73.9864 31.5221 70.4275 31.5221 66.0533C31.5221 66.0252 31.5202 65.9977 31.5199 65.9699H59.7496C59.7493 65.9977 59.7474 66.0253 59.7474 66.0533C59.7474 70.4275 63.3063 73.9864 67.6806 73.9864C72.0548 73.9864 75.6137 70.4275 75.6137 66.0533C75.6137 66.0252 75.6118 65.9977 75.6115 65.9699H79.7057C80.3974 65.9699 80.9584 65.4091 80.9584 64.7172V51.3561C80.9585 48.057 78.5246 45.3161 75.3582 44.8342ZM27.9742 18.9156C23.0331 15.8452 21.5674 14.4325 21.1335 13.8634C20.0206 12.4042 20.3024 10.3116 21.7618 9.19861C22.3634 8.73986 23.0724 8.51814 23.7763 8.51814C24.7798 8.51814 25.7726 8.96907 26.4268 9.82689C27.6385 11.4156 29.5362 16.763 30.789 20.6163C29.9435 20.1184 28.9717 19.5358 27.9742 18.9156ZM35.0949 20.6161C36.3477 16.763 38.2454 11.4158 39.457 9.82673C40.5699 8.36751 42.6626 8.08579 44.1218 9.19861C45.5812 10.3116 45.8629 12.4042 44.7501 13.8634C44.3162 14.4324 42.8506 15.8452 37.9098 18.9155C36.9124 19.5355 35.9406 20.1183 35.0949 20.6161ZM59.5807 31.2306H69.017C70.5365 31.2306 71.7727 32.4669 71.7727 33.9864V34.0699H59.5807V31.2306ZM59.5807 44.7589V36.5752H70.7112L72.7571 44.7589H59.5807ZM23.589 71.4813C20.596 71.4813 18.161 69.0463 18.161 66.0533C18.161 63.0603 20.596 60.6253 23.589 60.6253C26.582 60.6253 29.017 63.0603 29.017 66.0533C29.017 69.0463 26.582 71.4813 23.589 71.4813ZM67.6809 71.4813C64.6879 71.4813 62.2529 69.0463 62.2529 66.0533C62.2529 63.0603 64.6879 60.6253 67.6809 60.6253C70.6738 60.6253 73.1088 63.0603 73.1088 66.0533C73.1088 69.0463 70.6738 71.4813 67.6809 71.4813ZM78.4534 55.4478H77.0337C76.2509 55.4478 75.614 54.8109 75.614 54.0281V52.6084H78.4532V55.4478H78.4534Z" fill="white"/>
<path d="M23.589 63.4644C22.1615 63.4644 21.0002 64.6256 21.0002 66.0531C21.0002 67.4806 22.1615 68.6419 23.589 68.6419C25.0165 68.6419 26.1777 67.4806 26.1777 66.0531C26.1777 64.6256 25.0165 63.4644 23.589 63.4644Z" fill="white"/>
<path d="M67.6809 63.4644C66.2534 63.4644 65.0921 64.6256 65.0921 66.0531C65.0921 67.4806 66.2534 68.6419 67.6809 68.6419C69.1084 68.6419 70.2696 67.4806 70.2696 66.0531C70.2696 64.6256 69.1084 63.4644 67.6809 63.4644Z" fill="white"/>
<path d="M52.9835 58.1196H34.2779C33.5862 58.1196 33.0252 58.6804 33.0252 59.3723C33.0252 60.0642 33.586 60.6249 34.2779 60.6249H52.9835C53.6752 60.6249 54.2362 60.0642 54.2362 59.3723C54.2362 58.6804 53.6754 58.1196 52.9835 58.1196Z" fill="white"/>
<path d="M20.9168 52.7754H4.88339C4.19167 52.7754 3.63074 53.3362 3.63074 54.028C3.63074 54.7199 4.19152 55.2807 4.88339 55.2807H20.9168C21.6085 55.2807 22.1695 54.7199 22.1695 54.028C22.1695 53.3362 21.6085 52.7754 20.9168 52.7754Z" fill="white"/>
<path d="M20.9168 34.0698H15.5723C14.8806 34.0698 14.3196 34.6306 14.3196 35.3225V46.0114C14.3196 46.7031 14.8804 47.2641 15.5723 47.2641C16.2642 47.2641 16.825 46.7033 16.825 46.0114V41.9195H19.5807C20.2725 41.9195 20.8334 41.3587 20.8334 40.6669C20.8334 39.975 20.2726 39.4142 19.5807 39.4142H16.825V36.5751H20.9168C21.6086 36.5751 22.1695 36.0144 22.1695 35.3225C22.1693 34.6308 21.6086 34.0698 20.9168 34.0698Z" fill="white"/>
<path d="M30.7744 42.5069C32.028 41.6858 32.8583 40.2698 32.8583 38.6628C32.8583 36.1301 30.798 34.0698 28.2654 34.0698H24.925C24.2333 34.0698 23.6724 34.6306 23.6724 35.3225V46.0114C23.6724 46.7031 24.2332 47.2641 24.925 47.2641C25.6169 47.2641 26.1777 46.7033 26.1777 46.0114V43.2556H28.263L30.5633 46.7061C30.8047 47.0681 31.2018 47.2641 31.6066 47.2641C31.8455 47.2641 32.0868 47.1959 32.3002 47.0534C32.876 46.6698 33.0315 45.892 32.6475 45.3166L30.7744 42.5069ZM28.2654 40.7505H26.1777V36.5751H28.2654C29.4166 36.5751 30.353 37.5115 30.353 38.6628C30.353 39.8141 29.4166 40.7505 28.2654 40.7505Z" fill="white"/>
<path d="M40.9585 44.7589H36.8666V41.9155C36.8943 41.9173 36.922 41.9197 36.9501 41.9197H39.6223C40.314 41.9197 40.8749 41.3589 40.8749 40.667C40.8749 39.9751 40.3141 39.4144 39.6223 39.4144H36.9501C36.9218 39.4144 36.8943 39.4167 36.8666 39.4186V36.5751H40.9585C41.6502 36.5751 42.2112 36.0144 42.2112 35.3225C42.2112 34.6308 41.6504 34.0698 40.9585 34.0698H35.614C34.9223 34.0698 34.3613 34.6306 34.3613 35.3225V46.0114C34.3613 46.7031 34.9221 47.2641 35.614 47.2641H40.9585C41.6502 47.2641 42.2112 46.7033 42.2112 46.0114C42.2112 45.3195 41.6502 44.7589 40.9585 44.7589Z" fill="white"/>
<path d="M50.3113 44.7589H46.2195V41.9197H47.6391C48.3309 41.9197 48.8918 41.3589 48.8918 40.667C48.8918 39.9751 48.331 39.4144 47.6391 39.4144H46.2195V36.5751H50.3113C51.0031 36.5751 51.564 36.0144 51.564 35.3225C51.564 34.6308 51.0032 34.0698 50.3113 34.0698H44.9668C44.2751 34.0698 43.7141 34.6306 43.7141 35.3225V46.0114C43.7141 46.7031 44.2749 47.2641 44.9668 47.2641H50.3113C51.0031 47.2641 51.564 46.7033 51.564 46.0114C51.564 45.3195 51.0031 44.7589 50.3113 44.7589Z" fill="white"/>
</g>
<defs>
<clipPath id="clip0">
<rect width="80" height="80" fill="white" transform="translate(0.958527)"/>
</clipPath>
</defs>
</svg>
