<svg width="81" height="80" viewBox="0 0 81 80" fill="none" xmlns="http://www.w3.org/2000/svg">
<g clip-path="url(#clip0)">
<path d="M28.6166 55.0627C38.9758 55.0627 47.4036 46.6349 47.4036 36.2756C47.4036 25.9164 38.9758 17.4888 28.6166 17.4888C18.2574 17.4888 9.82971 25.9164 9.82971 36.2756C9.82971 46.6349 18.2574 55.0627 28.6166 55.0627ZM28.6166 20.6138C37.2527 20.6138 44.2786 27.6397 44.2786 36.2756C44.2786 44.9117 37.2527 51.9377 28.6166 51.9377C19.9805 51.9377 12.9547 44.9119 12.9547 36.2756C12.9547 27.6397 19.9805 20.6138 28.6166 20.6138Z" fill="white"/>
<path d="M25.5153 41.1933C24.9739 40.5212 23.9903 40.4153 23.3183 40.9564C22.6463 41.4978 22.5403 42.4814 23.0816 43.1534C24.1289 44.4538 25.6622 45.1617 27.1653 45.4739V45.5791C27.1653 46.4419 27.8649 47.1416 28.7278 47.1416C29.5866 47.1416 30.2835 46.4488 30.2902 45.5916C33.4691 45.148 34.8621 43.0508 35.1002 41.1759C35.4363 38.53 33.7088 35.9886 30.8993 34.9953C30.6869 34.9203 30.4839 34.848 30.2903 34.7783V30.3966C30.7468 30.5628 31.0655 30.8073 31.23 31.0417C31.7257 31.7481 32.7002 31.9191 33.4066 31.4231C34.113 30.9273 34.2838 29.953 33.788 29.2466C33.1063 28.275 31.8832 27.4603 30.2903 27.1755V26.9727C30.2903 26.1098 29.5908 25.4102 28.7278 25.4102C27.8649 25.4102 27.1653 26.1098 27.1653 26.9727V27.2903C26.9741 27.3348 26.7805 27.3864 26.5843 27.4456C24.7286 28.0047 23.328 29.8056 23.1783 31.8253C23.0302 33.8234 24.0922 35.5589 26.0194 36.4675C26.275 36.5881 26.6678 36.752 27.1653 36.9472V42.248C26.5071 42.0294 25.9114 41.6848 25.5153 41.1933ZM32 40.782C31.8974 41.5906 31.2858 42.1639 30.2903 42.4122V38.1217C31.6122 38.7619 32.1107 39.9113 32 40.782ZM26.2947 32.0566C26.3396 31.4523 26.6936 30.8747 27.1653 30.5837V33.5447C26.5403 33.1922 26.2475 32.6925 26.2947 32.0566Z" fill="white"/>
<path d="M75.5807 38.2661V24.0534C75.5807 20.5289 72.7133 17.6617 69.1889 17.6617H56.7253C55.9322 12.9873 52.7241 9.89014 48.3857 9.89014H9.05471C4.23721 9.88998 0.317993 13.8092 0.317993 18.6265V62.0367C0.317993 62.8995 1.01752 63.5992 1.88049 63.5992H8.19956C8.79909 67.2862 12.0064 70.11 15.861 70.11C19.7155 70.11 22.9228 67.2862 23.5225 63.5992H57.5564C58.156 67.2862 61.3633 70.11 65.2178 70.11C69.0724 70.11 72.2797 67.2862 72.8792 63.5992H78.7555C79.6183 63.5992 80.318 62.8995 80.318 62.0367V43.7465C80.318 40.9645 78.2563 38.6553 75.5807 38.2661ZM72.4557 24.0533V38.2081H56.9153V20.7865H69.1889C70.9902 20.7865 72.4557 22.252 72.4557 24.0533ZM3.44299 18.6265C3.44299 15.5323 5.96034 13.015 9.05471 13.015H48.3857C51.6183 13.015 53.7903 15.8153 53.7903 19.9831V60.4744H23.3941C22.553 57.0981 19.4947 54.5889 15.8611 54.5889C12.2275 54.5889 9.16924 57.0981 8.32815 60.4744H3.44299V18.6265ZM15.8611 66.985C13.3042 66.985 11.2239 64.9055 11.2239 62.3494C11.2239 59.7933 13.3041 57.7137 15.8611 57.7137C18.4181 57.7137 20.4983 59.7933 20.4983 62.3494C20.4983 64.9055 18.418 66.985 15.8611 66.985ZM65.2178 66.985C62.661 66.985 60.5807 64.9055 60.5807 62.3494C60.5807 59.7933 62.6608 57.7137 65.2178 57.7137C67.7749 57.7137 69.855 59.7933 69.855 62.3494C69.855 64.9055 67.7749 66.985 65.2178 66.985ZM77.193 60.4742H72.7508C71.9097 57.0979 68.8514 54.5887 65.2178 54.5887C61.5842 54.5887 58.526 57.0979 57.6849 60.4742H56.9152V41.3331H74.7796C76.1103 41.3331 77.1928 42.4158 77.1928 43.7464V60.4742H77.193Z" fill="white"/>
</g>
<defs>
<clipPath id="clip0">
<rect width="80" height="80" fill="white" transform="translate(0.317993)"/>
</clipPath>
</defs>
</svg>
