<svg width="80" height="80" viewBox="0 0 80 80" fill="none" xmlns="http://www.w3.org/2000/svg">
<path d="M74.3997 36.1506L72.328 27.8638C72.8944 27.7435 73.3194 27.241 73.3194 26.639V25.3029C73.3194 22.402 70.9592 20.042 68.0584 20.042H58.6222V17.286C58.6222 15.8585 57.4609 14.6973 56.0334 14.6973H7.93313C6.50562 14.6973 5.34437 15.8585 5.34437 17.286V40.0001C5.34437 40.6918 5.90516 41.2527 6.59703 41.2527C7.28875 41.2527 7.84969 40.692 7.84969 40.0001V17.286C7.84969 17.2399 7.88703 17.2026 7.93313 17.2026H56.0333C56.0794 17.2026 56.1167 17.2399 56.1167 17.286V40.0004C56.1167 40.6921 56.6775 41.2531 57.3694 41.2531C58.0611 41.2531 58.622 40.6923 58.622 40.0004V38.5804H73.3984C73.3997 38.5804 73.4006 38.5807 73.4017 38.5807C73.403 38.5807 73.4041 38.5806 73.4052 38.5806C75.2234 38.5818 76.7673 39.7752 77.2977 41.4198H73.4027C72.7109 41.4198 72.15 41.9806 72.15 42.6724V45.3446C72.15 47.5088 73.9106 49.2695 76.0748 49.2695H77.4945V54.7809H74.2192C73.1433 51.6741 70.19 49.4363 66.722 49.4363C63.2541 49.4363 60.3006 51.6741 59.2248 54.7809H58.6217V45.3445C58.6217 44.6527 58.0609 44.0918 57.3691 44.0918C56.6773 44.0918 56.1164 44.6526 56.1164 45.3445V54.7806H30.1277C29.0517 51.6738 26.0984 49.436 22.6305 49.436C19.1625 49.436 16.2091 51.6738 15.1333 54.7806H7.93313C7.88703 54.7806 7.84969 54.7432 7.84969 54.6971V51.9413H13.2777C13.9694 51.9413 14.5303 51.3806 14.5303 50.6887C14.5303 49.9968 13.9695 49.436 13.2777 49.436H1.25266C0.560938 49.436 0 49.9968 0 50.6887C0 51.3806 0.560781 51.9413 1.25266 51.9413H5.34453V54.6971C5.34453 56.1246 6.50578 57.2859 7.93328 57.2859H14.6995C14.6992 57.3137 14.6973 57.3413 14.6973 57.3693C14.6973 61.7437 18.2563 65.3024 22.6305 65.3024C27.0047 65.3024 30.5636 61.7437 30.5636 57.3693C30.5636 57.3412 30.5617 57.3137 30.5614 57.2859H58.7911C58.7908 57.3137 58.7889 57.3413 58.7889 57.3693C58.7889 61.7437 62.3478 65.3024 66.722 65.3024C71.0963 65.3024 74.6552 61.7437 74.6552 57.3693C74.6552 57.3412 74.6533 57.3137 74.653 57.2859H78.7472C79.4389 57.2859 79.9998 56.7251 79.9998 56.0332V42.6721C80 39.3734 77.5661 36.6326 74.3997 36.1506ZM58.6222 22.5471H68.0584C69.578 22.5471 70.8142 23.7834 70.8142 25.3029V25.3863H58.6222V22.5471ZM58.6222 36.0752V27.8915H69.7527L71.7986 36.0752H58.6222ZM22.6305 62.7976C19.6375 62.7976 17.2025 60.3627 17.2025 57.3696C17.2025 54.3765 19.6375 51.9416 22.6305 51.9416C25.6234 51.9416 28.0584 54.3765 28.0584 57.3696C28.0584 60.3627 25.6234 62.7976 22.6305 62.7976ZM66.7223 62.7976C63.7294 62.7976 61.2944 60.3627 61.2944 57.3696C61.2944 54.3765 63.7294 51.9416 66.7223 51.9416C69.7153 51.9416 72.1503 54.3765 72.1503 57.3696C72.1503 60.3627 69.7153 62.7976 66.7223 62.7976ZM77.4948 46.7641H76.0752C75.2923 46.7641 74.6555 46.1273 74.6555 45.3445V43.9248H77.4947V46.7641H77.4948Z" fill="white"/>
<path d="M22.6306 54.7808C21.2031 54.7808 20.0418 55.942 20.0418 57.3695C20.0418 58.797 21.2031 59.9583 22.6306 59.9583C24.0581 59.9583 25.2193 58.797 25.2193 57.3695C25.2193 55.942 24.0581 54.7808 22.6306 54.7808Z" fill="white"/>
<path d="M66.7224 54.7808C65.2949 54.7808 64.1336 55.942 64.1336 57.3695C64.1336 58.797 65.2949 59.9583 66.7224 59.9583C68.1499 59.9583 69.3111 58.797 69.3111 57.3695C69.3111 55.942 68.1499 54.7808 66.7224 54.7808Z" fill="white"/>
<path d="M52.025 49.436H33.3194C32.6277 49.436 32.0668 49.9968 32.0668 50.6887C32.0668 51.3806 32.6276 51.9413 33.3194 51.9413H52.025C52.7167 51.9413 53.2777 51.3806 53.2777 50.6887C53.2777 49.9968 52.7169 49.436 52.025 49.436Z" fill="white"/>
<path d="M19.9583 44.0918H3.92484C3.23312 44.0918 2.67218 44.6526 2.67218 45.3445C2.67218 46.0363 3.23296 46.5971 3.92484 46.5971H19.9583C20.65 46.5971 21.2109 46.0363 21.2109 45.3445C21.2109 44.6526 20.65 44.0918 19.9583 44.0918Z" fill="white"/>
<path d="M43.558 27.0889C43.069 26.5999 42.2757 26.5999 41.7866 27.0891L30.6472 38.2283L24.8524 32.4335C24.3632 31.9443 23.57 31.9443 23.081 32.4335C22.5917 32.9227 22.5917 33.7157 23.081 34.2049L29.7616 40.8855C30.0061 41.1302 30.3268 41.2524 30.6472 41.2524C30.9677 41.2524 31.2885 41.1302 31.5329 40.8855L43.5579 28.8605C44.0471 28.3711 44.0471 27.5782 43.558 27.0889Z" fill="white"/>
</svg>
