<svg width="847" height="310" viewBox="0 0 847 310" fill="none" xmlns="http://www.w3.org/2000/svg">
<path d="M342.605 27.8V95H333.197V36.152H294.221V95H284.717V27.8H342.605ZM384.777 87.512C390.857 87.512 395.753 85.464 399.465 81.368L404.457 87.32C402.217 90.008 399.369 92.056 395.913 93.464C392.521 94.872 388.713 95.576 384.489 95.576C379.113 95.576 374.345 94.488 370.185 92.312C366.025 90.072 362.793 86.968 360.489 83C358.249 79.032 357.129 74.552 357.129 69.56C357.129 64.632 358.217 60.184 360.393 56.216C362.633 52.248 365.673 49.176 369.513 47C373.417 44.76 377.801 43.64 382.665 43.64C387.273 43.64 391.465 44.696 395.241 46.808C399.017 48.856 402.025 51.768 404.265 55.544C406.505 59.32 407.657 63.672 407.721 68.6L367.305 76.472C368.585 79.992 370.729 82.712 373.737 84.632C376.809 86.552 380.489 87.512 384.777 87.512ZM382.665 51.416C379.465 51.416 376.585 52.152 374.025 53.624C371.529 55.096 369.577 57.176 368.169 59.864C366.761 62.488 366.057 65.56 366.057 69.08V70.04L398.601 63.896C397.769 60.184 395.913 57.176 393.033 54.872C390.153 52.568 386.697 51.416 382.665 51.416ZM463.642 44.12V95H454.426V52.184H432.538L431.962 63.512C431.642 70.36 431.034 76.088 430.138 80.696C429.242 85.24 427.77 88.888 425.722 91.64C423.674 94.392 420.826 95.768 417.178 95.768C415.514 95.768 413.626 95.48 411.514 94.904L412.09 87.128C412.922 87.32 413.69 87.416 414.394 87.416C416.954 87.416 418.874 86.296 420.154 84.056C421.434 81.816 422.266 79.16 422.65 76.088C423.034 73.016 423.386 68.632 423.706 62.936L424.57 44.12H463.642ZM502.678 96.152C495.446 96.152 489.878 94.392 485.974 90.872C482.134 87.352 480.214 82.36 480.214 75.896V44.12H489.43V63.8C491.094 62.136 493.334 60.856 496.15 59.96C499.03 59 502.134 58.52 505.462 58.52C511.798 58.52 516.726 60.12 520.246 63.32C523.766 66.52 525.526 70.936 525.526 76.568C525.526 82.648 523.51 87.448 519.478 90.968C515.446 94.424 509.846 96.152 502.678 96.152ZM502.774 89.144C506.934 89.144 510.198 88.024 512.566 85.784C514.934 83.544 516.118 80.536 516.118 76.76C516.118 73.176 514.966 70.36 512.662 68.312C510.358 66.264 507.126 65.24 502.966 65.24C499.894 65.24 497.174 65.848 494.806 67.064C492.438 68.28 490.646 69.976 489.43 72.152V76.664C489.43 80.568 490.614 83.64 492.982 85.88C495.35 88.056 498.614 89.144 502.774 89.144ZM596.274 44.12V95H587.922V57.848L568.914 89.24H564.882L546.066 57.752V95H537.618V44.12H547.122L567.09 78.488L587.634 44.12H596.274ZM636.964 87.512C643.044 87.512 647.94 85.464 651.652 81.368L656.644 87.32C654.404 90.008 651.556 92.056 648.1 93.464C644.708 94.872 640.9 95.576 636.676 95.576C631.3 95.576 626.532 94.488 622.372 92.312C618.212 90.072 614.98 86.968 612.676 83C610.436 79.032 609.316 74.552 609.316 69.56C609.316 64.632 610.404 60.184 612.58 56.216C614.82 52.248 617.86 49.176 621.7 47C625.604 44.76 629.988 43.64 634.852 43.64C639.46 43.64 643.652 44.696 647.428 46.808C651.204 48.856 654.212 51.768 656.452 55.544C658.692 59.32 659.844 63.672 659.908 68.6L619.492 76.472C620.772 79.992 622.916 82.712 625.924 84.632C628.996 86.552 632.676 87.512 636.964 87.512ZM634.852 51.416C631.652 51.416 628.772 52.152 626.212 53.624C623.716 55.096 621.764 57.176 620.356 59.864C618.948 62.488 618.244 65.56 618.244 69.08V70.04L650.788 63.896C649.956 60.184 648.1 57.176 645.22 54.872C642.34 52.568 638.884 51.416 634.852 51.416ZM745.473 44.12V95H672.993V44.12H682.209V86.936H704.673V44.12H713.889V86.936H736.257V44.12H745.473ZM809.736 44.12V95H800.904V87.512C799.048 90.072 796.616 92.056 793.608 93.464C790.6 94.872 787.304 95.576 783.72 95.576C776.936 95.576 771.592 93.72 767.688 90.008C763.784 86.232 761.832 80.696 761.832 73.4V44.12H771.048V72.344C771.048 77.272 772.232 81.016 774.6 83.576C776.968 86.072 780.36 87.32 784.776 87.32C789.64 87.32 793.48 85.848 796.296 82.904C799.112 79.96 800.52 75.8 800.52 70.424V44.12H809.736ZM351.533 198.648V221.688H342.605V207H286.061L285.965 221.688H277.133L277.229 198.648H285.485V168.504C285.485 159.032 288.077 151.768 293.261 146.712C298.445 141.592 305.453 139.032 314.285 139.032C323.181 139.032 330.221 141.592 335.405 146.712C340.653 151.768 343.277 159.032 343.277 168.504V198.648H351.533ZM333.581 198.648V167.544C333.581 161.016 331.885 156.088 328.493 152.76C325.165 149.368 320.429 147.672 314.285 147.672C308.205 147.672 303.469 149.368 300.077 152.76C296.685 156.088 294.989 161.016 294.989 167.544V198.648H333.581ZM384.567 207.576C379.511 207.576 374.967 206.456 370.935 204.216C366.903 201.976 363.735 198.904 361.431 195C359.191 191.032 358.071 186.552 358.071 181.56C358.071 176.568 359.191 172.12 361.431 168.216C363.735 164.248 366.903 161.176 370.935 159C374.967 156.76 379.511 155.64 384.567 155.64C389.623 155.64 394.135 156.76 398.103 159C402.135 161.176 405.271 164.248 407.511 168.216C409.815 172.12 410.967 176.568 410.967 181.56C410.967 186.552 409.815 191.032 407.511 195C405.271 198.904 402.135 201.976 398.103 204.216C394.135 206.456 389.623 207.576 384.567 207.576ZM384.567 199.512C387.831 199.512 390.743 198.776 393.303 197.304C395.927 195.768 397.975 193.656 399.447 190.968C400.919 188.216 401.655 185.08 401.655 181.56C401.655 178.04 400.919 174.936 399.447 172.248C397.975 169.496 395.927 167.384 393.303 165.912C390.743 164.44 387.831 163.704 384.567 163.704C381.303 163.704 378.359 164.44 375.735 165.912C373.175 167.384 371.127 169.496 369.591 172.248C368.119 174.936 367.383 178.04 367.383 181.56C367.383 185.08 368.119 188.216 369.591 190.968C371.127 193.656 373.175 195.768 375.735 197.304C378.359 198.776 381.303 199.512 384.567 199.512ZM450.195 157.848C454.931 157.848 459.155 158.904 462.867 161.016C466.579 163.128 469.459 166.072 471.507 169.848C473.619 173.56 474.675 177.816 474.675 182.616C474.675 187.544 473.555 191.928 471.315 195.768C469.139 199.544 466.035 202.488 462.003 204.6C458.035 206.712 453.491 207.768 448.371 207.768C439.731 207.768 433.043 204.824 428.307 198.936C423.635 192.984 421.299 184.632 421.299 173.88C421.299 163.448 423.443 155.288 427.731 149.4C432.019 143.448 438.579 139.512 447.411 137.592L470.643 132.408L471.987 140.856L450.579 145.464C443.923 146.936 438.963 149.432 435.699 152.952C432.435 156.472 430.579 161.528 430.131 168.12C432.307 164.856 435.123 162.328 438.579 160.536C442.035 158.744 445.907 157.848 450.195 157.848ZM448.563 200.088C451.827 200.088 454.707 199.352 457.203 197.88C459.763 196.408 461.747 194.392 463.155 191.832C464.563 189.208 465.267 186.232 465.267 182.904C465.267 177.848 463.731 173.784 460.659 170.712C457.587 167.64 453.555 166.104 448.563 166.104C443.571 166.104 439.507 167.64 436.371 170.712C433.299 173.784 431.763 177.848 431.763 182.904C431.763 186.232 432.467 189.208 433.875 191.832C435.347 194.392 437.363 196.408 439.923 197.88C442.483 199.352 445.363 200.088 448.563 200.088ZM512.029 155.64C517.149 155.64 521.661 156.728 525.565 158.904C529.533 161.08 532.573 164.152 534.685 168.12C536.861 172.024 537.949 176.536 537.949 181.656C537.949 186.712 536.893 191.224 534.781 195.192C532.669 199.096 529.725 202.136 525.949 204.312C522.173 206.488 517.853 207.576 512.989 207.576C509.149 207.576 505.693 206.904 502.621 205.56C499.549 204.152 496.989 202.136 494.941 199.512V225.624H485.629V181.752C485.629 176.632 486.717 172.088 488.893 168.12C491.133 164.152 494.237 161.08 498.205 158.904C502.237 156.728 506.845 155.64 512.029 155.64ZM511.741 199.512C515.005 199.512 517.949 198.776 520.573 197.304C523.197 195.768 525.213 193.656 526.621 190.968C528.093 188.216 528.829 185.112 528.829 181.656C528.829 178.2 528.093 175.128 526.621 172.44C525.213 169.688 523.197 167.544 520.573 166.008C518.013 164.472 515.069 163.704 511.741 163.704C506.685 163.704 502.589 165.368 499.453 168.696C496.317 171.96 494.749 176.248 494.749 181.56C494.749 185.08 495.453 188.216 496.861 190.968C498.333 193.656 500.349 195.768 502.909 197.304C505.469 198.776 508.413 199.512 511.741 199.512ZM590.512 156.12V207H582.256V190.872H567.472H566.416L555.28 207H545.392L557.776 189.624C553.936 188.472 550.992 186.584 548.944 183.96C546.896 181.272 545.872 177.944 545.872 173.976C545.872 168.152 547.856 163.736 551.824 160.728C555.792 157.656 561.264 156.12 568.24 156.12H590.512ZM555.28 174.264C555.28 177.656 556.336 180.184 558.448 181.848C560.624 183.448 563.856 184.248 568.144 184.248H582.256V164.184H568.528C559.696 164.184 555.28 167.544 555.28 174.264ZM680.973 156.12V207H608.493V156.12H617.709V198.936H640.173V156.12H649.389V198.936H671.757V156.12H680.973ZM745.236 156.12V207H736.404V199.512C734.548 202.072 732.116 204.056 729.108 205.464C726.1 206.872 722.804 207.576 719.22 207.576C712.436 207.576 707.092 205.72 703.188 202.008C699.284 198.232 697.332 192.696 697.332 185.4V156.12H706.548V184.344C706.548 189.272 707.732 193.016 710.1 195.576C712.468 198.072 715.86 199.32 720.276 199.32C725.14 199.32 728.98 197.848 731.796 194.904C734.612 191.96 736.02 187.8 736.02 182.424V156.12H745.236ZM294.553 237.7C298.92 237.7 302.37 239 304.903 241.6C307.436 244.2 308.703 247.917 308.703 252.75V273H305.003V252.4C305.003 248.633 304.086 245.8 302.253 243.9C300.42 241.967 297.853 241 294.553 241C291.22 241 288.62 241.967 286.753 243.9C284.92 245.8 284.003 248.633 284.003 252.4V273H276.103V269.8H280.303V252.75C280.303 247.917 281.586 244.2 284.153 241.6C286.72 239 290.186 237.7 294.553 237.7ZM329.857 270.1C331.49 270.1 332.991 269.817 334.357 269.25C335.757 268.65 336.941 267.783 337.907 266.65L339.907 268.95C338.74 270.35 337.29 271.417 335.557 272.15C333.824 272.883 331.907 273.25 329.807 273.25C327.107 273.25 324.707 272.683 322.607 271.55C320.507 270.383 318.874 268.783 317.707 266.75C316.54 264.717 315.957 262.417 315.957 259.85C315.957 257.283 316.507 254.983 317.607 252.95C318.74 250.917 320.29 249.333 322.257 248.2C324.224 247.067 326.457 246.5 328.957 246.5C331.29 246.5 333.39 247.033 335.257 248.1C337.157 249.167 338.657 250.65 339.757 252.55C340.891 254.45 341.491 256.617 341.557 259.05L319.957 263.25C320.624 265.383 321.824 267.067 323.557 268.3C325.324 269.5 327.424 270.1 329.857 270.1ZM328.957 249.55C327.124 249.55 325.474 249.983 324.007 250.85C322.574 251.683 321.44 252.867 320.607 254.4C319.807 255.9 319.407 257.633 319.407 259.6C319.407 260.1 319.424 260.467 319.457 260.7L338.007 257.1C337.607 254.9 336.591 253.1 334.957 251.7C333.324 250.267 331.324 249.55 328.957 249.55ZM372.483 246.7V273H368.933V249.85H352.433V273H348.883V246.7H372.483ZM405.724 246.7V273H402.324V268.2C401.391 269.8 400.108 271.05 398.474 271.95C396.841 272.817 394.974 273.25 392.874 273.25C389.408 273.25 386.674 272.3 384.674 270.4C382.708 268.467 381.724 265.65 381.724 261.95V246.7H385.274V261.6C385.274 264.367 385.958 266.467 387.324 267.9C388.691 269.333 390.658 270.05 393.224 270.05C395.991 270.05 398.174 269.217 399.774 267.55C401.374 265.85 402.174 263.5 402.174 260.5V246.7H405.724ZM445.226 246.7V273H441.976V252.2L431.326 269.8H429.726L419.076 252.15V273H415.826V246.7H419.426L430.576 265.65L441.926 246.7H445.226ZM479.414 273.25C476.814 273.25 474.481 272.683 472.414 271.55C470.381 270.417 468.781 268.833 467.614 266.8C466.448 264.733 465.864 262.417 465.864 259.85C465.864 257.283 466.448 254.983 467.614 252.95C468.781 250.917 470.381 249.333 472.414 248.2C474.481 247.067 476.814 246.5 479.414 246.5C481.681 246.5 483.698 246.95 485.464 247.85C487.264 248.717 488.681 250 489.714 251.7L487.064 253.5C486.198 252.2 485.098 251.233 483.764 250.6C482.431 249.933 480.981 249.6 479.414 249.6C477.514 249.6 475.798 250.033 474.264 250.9C472.764 251.733 471.581 252.933 470.714 254.5C469.881 256.067 469.464 257.85 469.464 259.85C469.464 261.883 469.881 263.683 470.714 265.25C471.581 266.783 472.764 267.983 474.264 268.85C475.798 269.683 477.514 270.1 479.414 270.1C480.981 270.1 482.431 269.783 483.764 269.15C485.098 268.517 486.198 267.55 487.064 266.25L489.714 268.05C488.681 269.75 487.264 271.05 485.464 271.95C483.664 272.817 481.648 273.25 479.414 273.25ZM531.174 246.7V273H527.624V249.85H515.024L514.674 256.35C514.407 261.817 513.774 266.017 512.774 268.95C511.774 271.883 509.991 273.35 507.424 273.35C506.724 273.35 505.874 273.217 504.874 272.95L505.124 269.9C505.724 270.033 506.141 270.1 506.374 270.1C507.741 270.1 508.774 269.467 509.474 268.2C510.174 266.933 510.641 265.367 510.874 263.5C511.107 261.633 511.307 259.167 511.474 256.1L511.924 246.7H531.174ZM563.866 246.5C566.332 246.5 568.549 247.067 570.516 248.2C572.516 249.333 574.082 250.917 575.216 252.95C576.349 254.983 576.916 257.283 576.916 259.85C576.916 262.417 576.349 264.717 575.216 266.75C574.082 268.783 572.516 270.383 570.516 271.55C568.549 272.683 566.332 273.25 563.866 273.25C561.532 273.25 559.416 272.75 557.516 271.75C555.616 270.717 554.066 269.3 552.866 267.5C551.699 265.7 551.016 263.633 550.816 261.3H544.816V273H541.266V246.7H544.816V258.05H550.866C551.132 255.783 551.849 253.783 553.016 252.05C554.216 250.283 555.749 248.917 557.616 247.95C559.482 246.983 561.566 246.5 563.866 246.5ZM563.866 270.15C565.666 270.15 567.282 269.717 568.716 268.85C570.182 267.983 571.332 266.767 572.166 265.2C572.999 263.633 573.416 261.85 573.416 259.85C573.416 257.85 572.999 256.067 572.166 254.5C571.332 252.933 570.182 251.733 568.716 250.9C567.282 250.033 565.666 249.6 563.866 249.6C562.066 249.6 560.432 250.033 558.966 250.9C557.532 251.733 556.399 252.933 555.566 254.5C554.732 256.067 554.316 257.85 554.316 259.85C554.316 261.85 554.732 263.633 555.566 265.2C556.399 266.767 557.532 267.983 558.966 268.85C560.432 269.717 562.066 270.15 563.866 270.15ZM597.277 247.35C599.711 247.35 601.877 247.9 603.777 249C605.711 250.067 607.211 251.583 608.277 253.55C609.344 255.483 609.877 257.7 609.877 260.2C609.877 262.767 609.311 265.05 608.177 267.05C607.077 269.017 605.527 270.55 603.527 271.65C601.527 272.75 599.227 273.3 596.627 273.3C592.261 273.3 588.877 271.767 586.477 268.7C584.077 265.633 582.877 261.4 582.877 256C582.877 250.367 583.944 246.05 586.077 243.05C588.244 240.05 591.611 238.017 596.177 236.95L607.977 234.25L608.577 237.5L597.477 240.05C593.711 240.883 590.944 242.367 589.177 244.5C587.411 246.6 586.444 249.717 586.277 253.85C587.344 251.817 588.827 250.233 590.727 249.1C592.627 247.933 594.811 247.35 597.277 247.35ZM596.727 270.35C598.561 270.35 600.194 269.933 601.627 269.1C603.094 268.233 604.227 267.033 605.027 265.5C605.861 263.967 606.277 262.233 606.277 260.3C606.277 258.367 605.877 256.667 605.077 255.2C604.277 253.733 603.144 252.6 601.677 251.8C600.244 250.967 598.594 250.55 596.727 250.55C594.861 250.55 593.194 250.967 591.727 251.8C590.294 252.6 589.161 253.733 588.327 255.2C587.527 256.667 587.127 258.367 587.127 260.3C587.127 262.233 587.527 263.967 588.327 265.5C589.161 267.033 590.311 268.233 591.777 269.1C593.244 269.933 594.894 270.35 596.727 270.35ZM628.336 273.25C625.803 273.25 623.52 272.683 621.486 271.55C619.453 270.383 617.853 268.783 616.686 266.75C615.52 264.717 614.936 262.417 614.936 259.85C614.936 257.283 615.52 254.983 616.686 252.95C617.853 250.917 619.453 249.333 621.486 248.2C623.52 247.067 625.803 246.5 628.336 246.5C630.87 246.5 633.153 247.067 635.186 248.2C637.22 249.333 638.803 250.917 639.936 252.95C641.103 254.983 641.686 257.283 641.686 259.85C641.686 262.417 641.103 264.717 639.936 266.75C638.803 268.783 637.22 270.383 635.186 271.55C633.153 272.683 630.87 273.25 628.336 273.25ZM628.336 270.1C630.203 270.1 631.87 269.683 633.336 268.85C634.836 267.983 636.003 266.767 636.836 265.2C637.67 263.633 638.086 261.85 638.086 259.85C638.086 257.85 637.67 256.067 636.836 254.5C636.003 252.933 634.836 251.733 633.336 250.9C631.87 250.033 630.203 249.6 628.336 249.6C626.47 249.6 624.786 250.033 623.286 250.9C621.82 251.733 620.653 252.933 619.786 254.5C618.953 256.067 618.536 257.85 618.536 259.85C618.536 261.85 618.953 263.633 619.786 265.2C620.653 266.767 621.82 267.983 623.286 268.85C624.786 269.683 626.47 270.1 628.336 270.1ZM666.024 259.4C669.59 260.233 671.374 262.383 671.374 265.85C671.374 268.15 670.524 269.917 668.824 271.15C667.124 272.383 664.59 273 661.224 273H649.274V246.7H660.874C663.874 246.7 666.224 247.283 667.924 248.45C669.624 249.617 670.474 251.283 670.474 253.45C670.474 254.883 670.074 256.117 669.274 257.15C668.507 258.15 667.424 258.9 666.024 259.4ZM652.724 258.4H660.624C662.657 258.4 664.207 258.017 665.274 257.25C666.374 256.483 666.924 255.367 666.924 253.9C666.924 252.433 666.374 251.333 665.274 250.6C664.207 249.867 662.657 249.5 660.624 249.5H652.724V258.4ZM661.074 270.2C663.34 270.2 665.04 269.833 666.174 269.1C667.307 268.367 667.874 267.217 667.874 265.65C667.874 264.083 667.357 262.933 666.324 262.2C665.29 261.433 663.657 261.05 661.424 261.05H652.724V270.2H661.074ZM690.293 273.55C686.693 273.55 683.91 272.65 681.943 270.85C679.977 269.05 678.993 266.533 678.993 263.3V246.7H682.543V257.65C683.41 256.617 684.593 255.8 686.093 255.2C687.627 254.6 689.327 254.3 691.193 254.3C694.46 254.3 696.993 255.133 698.793 256.8C700.627 258.467 701.543 260.7 701.543 263.5C701.543 266.533 700.543 268.967 698.543 270.8C696.543 272.633 693.793 273.55 690.293 273.55ZM690.343 270.8C692.71 270.8 694.56 270.133 695.893 268.8C697.26 267.467 697.943 265.733 697.943 263.6C697.943 261.6 697.277 260 695.943 258.8C694.61 257.6 692.727 257 690.293 257C688.493 257 686.91 257.367 685.543 258.1C684.21 258.833 683.21 259.85 682.543 261.15V263.55C682.543 265.817 683.227 267.6 684.593 268.9C685.993 270.167 687.91 270.8 690.343 270.8ZM731.053 246.5C733.52 246.5 735.737 247.067 737.703 248.2C739.703 249.333 741.27 250.917 742.403 252.95C743.537 254.983 744.103 257.283 744.103 259.85C744.103 262.417 743.537 264.717 742.403 266.75C741.27 268.783 739.703 270.383 737.703 271.55C735.737 272.683 733.52 273.25 731.053 273.25C728.72 273.25 726.603 272.75 724.703 271.75C722.803 270.717 721.253 269.3 720.053 267.5C718.887 265.7 718.203 263.633 718.003 261.3H712.003V273H708.453V246.7H712.003V258.05H718.053C718.32 255.783 719.037 253.783 720.203 252.05C721.403 250.283 722.937 248.917 724.803 247.95C726.67 246.983 728.753 246.5 731.053 246.5ZM731.053 270.15C732.853 270.15 734.47 269.717 735.903 268.85C737.37 267.983 738.52 266.767 739.353 265.2C740.187 263.633 740.603 261.85 740.603 259.85C740.603 257.85 740.187 256.067 739.353 254.5C738.52 252.933 737.37 251.733 735.903 250.9C734.47 250.033 732.853 249.6 731.053 249.6C729.253 249.6 727.62 250.033 726.153 250.9C724.72 251.733 723.587 252.933 722.753 254.5C721.92 256.067 721.503 257.85 721.503 259.85C721.503 261.85 721.92 263.633 722.753 265.2C723.587 266.767 724.72 267.983 726.153 268.85C727.62 269.717 729.253 270.15 731.053 270.15Z" fill="black"/>
<path d="M202.585 89.4122C199.276 87.4793 197.471 83.606 198.135 79.7299C199.344 72.6649 198.086 66.2998 194.028 62.0942C188.605 56.4739 179.463 56.032 169.961 59.9592C165.252 61.9056 159.988 59.4021 158.304 54.4448C154.462 43.1283 147.15 35.4849 138.761 35.4849C130.371 35.4849 123.059 43.1283 119.217 54.4443C117.534 59.4016 112.27 61.9051 107.56 59.9587C98.0578 56.0315 88.9155 56.4734 83.4935 62.0938C79.4361 66.2993 78.1769 72.6649 79.3868 79.7294C80.0507 83.6055 78.245 87.4788 74.9367 89.4117C46.1717 106.215 27.3621 134.068 27.3621 165.586C27.3621 216.909 77.2368 258.515 138.761 258.515C200.284 258.515 250.159 216.909 250.159 165.586C250.159 134.068 231.35 106.215 202.585 89.4122Z" fill="#FDFFDC"/>
<path d="M83.199 165.586C83.199 138.499 97.0913 114.12 119.256 97.1342C127.628 90.7183 133.187 81.1475 135.157 70.5503C135.769 67.2565 137.143 64.3612 139.331 62.0938C144.753 56.4734 153.896 56.0315 163.397 59.9587C163.414 59.9657 163.431 59.9699 163.448 59.9764C161.132 59.0341 159.205 57.0951 158.304 54.4443C154.462 43.1283 147.15 35.4849 138.761 35.4849C130.371 35.4849 123.059 43.1283 119.217 54.4443C117.534 59.4016 112.27 61.9051 107.56 59.9587C98.0578 56.0315 88.9155 56.4734 83.4935 62.0938C79.4361 66.2993 78.1769 72.6649 79.3868 79.7294C80.0507 83.6055 78.245 87.4788 74.9367 89.4117C46.1717 106.215 27.3621 134.068 27.3621 165.586C27.3621 216.909 77.2368 258.515 138.761 258.515C148.402 258.515 157.757 257.492 166.679 255.572C118.667 245.236 83.199 208.866 83.199 165.586Z" fill="#FFFF9C"/>
<path d="M103.625 163.044C110.785 163.044 116.589 158.253 116.589 152.343C116.589 146.433 110.785 141.642 103.625 141.642C96.4657 141.642 90.6616 146.433 90.6616 152.343C90.6616 158.253 96.4657 163.044 103.625 163.044Z" fill="#FF9B87"/>
<path d="M173.896 163.044C181.056 163.044 186.86 158.253 186.86 152.343C186.86 146.433 181.056 141.642 173.896 141.642C166.736 141.642 160.931 146.433 160.931 152.343C160.931 158.253 166.736 163.044 173.896 163.044Z" fill="#FF9B87"/>
<path d="M105.01 144.183C106.867 144.183 108.372 142.623 108.372 140.698C108.372 139.093 109.633 137.787 111.181 137.787C112.729 137.787 113.989 139.093 113.989 140.698C113.989 142.623 115.495 144.183 117.352 144.183C119.208 144.183 120.714 142.623 120.714 140.698C120.714 135.25 116.437 130.818 111.181 130.818C105.925 130.818 101.648 135.25 101.648 140.698C101.648 142.623 103.153 144.183 105.01 144.183Z" fill="black"/>
<path d="M166.34 130.818C161.083 130.818 156.807 135.25 156.807 140.699C156.807 142.623 158.313 144.184 160.169 144.184C162.026 144.184 163.531 142.623 163.531 140.699C163.531 139.094 164.792 137.788 166.34 137.788C167.888 137.788 169.148 139.094 169.148 140.699C169.148 142.623 170.654 144.184 172.511 144.184C174.367 144.184 175.873 142.623 175.873 140.699C175.873 135.25 171.597 130.818 166.34 130.818Z" fill="black"/>
<path d="M134.75 145.885C133.53 144.434 131.406 144.283 130.006 145.547C128.606 146.812 128.46 149.013 129.68 150.464C131.971 153.188 135.28 154.75 138.76 154.75C142.24 154.75 145.55 153.188 147.84 150.464C149.06 149.013 148.914 146.812 147.514 145.547C146.114 144.283 143.99 144.434 142.771 145.885C141.758 147.09 140.296 147.781 138.76 147.781C137.224 147.781 135.763 147.089 134.75 145.885Z" fill="black"/>
<path d="M63.6086 229.818C42.4029 212.805 30.7243 189.993 30.7243 165.586C30.7243 136.565 47.8693 109.224 76.5873 92.4482C81.1504 89.783 83.6061 84.427 82.6974 79.1207C81.6399 72.947 82.7669 67.7755 85.8708 64.5582C90.1084 60.1659 97.7508 59.6567 106.315 63.1959C109.442 64.4881 112.844 64.4091 115.895 62.9724C118.959 61.5301 121.264 58.9123 122.388 55.6017C125.872 45.3428 132.145 38.9697 138.761 38.9697C145.376 38.9697 151.65 45.3428 155.133 55.6013C156.257 58.9119 158.563 61.5297 161.626 62.9719C164.677 64.4086 168.079 64.4881 171.207 63.1954C179.771 59.6562 187.413 60.1655 191.651 64.5578C194.754 67.775 195.881 72.947 194.824 79.1207C193.915 84.4265 196.371 89.7825 200.934 92.4477C204.65 94.6185 208.238 97.0082 211.598 99.5512C213.097 100.686 215.201 100.346 216.296 98.7915C217.391 97.2368 217.062 95.0567 215.563 93.922C211.991 91.2197 208.18 88.6808 204.236 86.3762C202.156 85.1616 201.034 82.7357 201.445 80.3395C202.898 71.8588 201.108 64.5039 196.405 59.6302C190.207 53.2055 179.856 52.1183 168.716 56.7224C167.306 57.3051 165.776 57.2712 164.408 56.6272C163.028 55.9771 161.987 54.7914 161.476 53.2878C157.017 40.1569 148.314 32 138.761 32C129.208 32 120.504 40.1569 116.046 53.2878C115.535 54.7909 114.494 55.9771 113.114 56.6272C111.746 57.2712 110.216 57.3051 108.806 56.722C97.6665 52.1187 87.3152 53.2055 81.1167 59.6302C76.4142 64.5039 74.6247 71.8588 76.0771 80.339C76.4878 82.7357 75.3662 85.1616 73.2861 86.3762C42.4249 104.404 24 134.015 24 165.586C24 179.036 27.2285 192.05 33.5955 204.265C39.7115 215.998 48.4243 226.449 59.4929 235.329C60.1052 235.821 60.8297 236.059 61.5483 236.059C62.5529 236.059 63.5467 235.594 64.2093 234.707C65.3461 233.184 65.0771 230.996 63.6086 229.818Z" fill="black"/>
<path d="M226.153 103.066C224.808 101.74 222.68 101.795 221.4 103.19C220.12 104.584 220.173 106.79 221.519 108.117C237.82 124.186 246.797 144.596 246.797 165.586C246.797 214.906 198.332 255.03 138.761 255.03C115.385 255.03 93.1352 248.942 74.4158 237.422C72.819 236.44 70.7564 236.985 69.8083 238.64C68.8606 240.295 69.3865 242.433 70.9833 243.416C90.7409 255.573 114.178 262 138.761 262C169.28 262 198.004 252.06 219.639 234.012C241.488 215.785 253.521 191.484 253.521 165.586C253.521 142.668 243.802 120.464 226.153 103.066Z" fill="black"/>
<path d="M142.693 95.7653V83.3611C142.693 81.4365 141.187 79.8762 139.33 79.8762C137.474 79.8762 135.968 81.4365 135.968 83.3611V95.7653C135.968 97.6898 137.474 99.2501 139.33 99.2501C141.187 99.2501 142.693 97.6898 142.693 95.7653Z" fill="black"/>
<path d="M178.003 98.7832C179.611 97.8209 180.162 95.6896 179.234 94.0229L172.325 81.6187C171.396 79.952 169.34 79.381 167.732 80.3432C166.124 81.3055 165.573 83.4369 166.501 85.1035L173.411 97.5077C174.033 98.6257 175.164 99.2506 176.326 99.2506C176.896 99.2511 177.474 99.1006 178.003 98.7832Z" fill="black"/>
<path d="M111.02 85.1039C111.948 83.4373 111.397 81.3059 109.789 80.3436C108.181 79.3809 106.125 79.9524 105.197 81.6191L98.2874 94.0233C97.359 95.69 97.9099 97.8213 99.5179 98.7836C100.047 99.1005 100.626 99.251 101.196 99.251C102.358 99.251 103.488 98.6256 104.111 97.5081L111.02 85.1039Z" fill="black"/>
<path d="M104.648 219.891C112.075 219.891 118.096 213.65 118.096 205.952C118.096 198.253 112.075 192.012 104.648 192.012C97.2202 192.012 91.1991 198.253 91.1991 205.952C91.1991 213.65 97.2202 219.891 104.648 219.891Z" fill="#FDFFBF"/>
<path d="M138.761 229.649C143.712 229.649 147.726 225.489 147.726 220.357C147.726 215.224 143.712 211.064 138.761 211.064C133.809 211.064 129.795 215.224 129.795 220.357C129.795 225.489 133.809 229.649 138.761 229.649Z" fill="#FDFFBF"/>
<path d="M198.746 201.305C203.697 201.305 207.711 197.145 207.711 192.012C207.711 186.88 203.697 182.719 198.746 182.719C193.794 182.719 189.78 186.88 189.78 192.012C189.78 197.145 193.794 201.305 198.746 201.305Z" fill="#FDFFBF"/>
</svg>
