<svg width="90" height="80" viewBox="0 0 90 80" fill="none" xmlns="http://www.w3.org/2000/svg">
<path d="M85.1219 11.2019C83.922 7.79432 82.2957 5.35444 82.2268 5.2519C81.9601 4.85502 81.4111 4.64857 80.9138 4.75157C80.7851 4.77812 77.7141 5.4254 74.1716 7.02299C69.3892 9.17906 66.0485 12.0575 64.5094 15.3456C63.2284 18.0839 63.0444 21.4316 63.9533 25.1298C62.0173 23.1775 59.8396 21.4696 57.4656 20.0317C56.7407 18.7385 54.8239 15.5548 51.8275 12.2273C50.8405 11.1319 48.942 12.5065 49.9391 13.613C51.9582 15.8555 53.478 18.0611 54.4285 19.5763L43.3454 17.6253L32.8154 4.65544C33.8379 4.66826 34.8639 4.75752 35.8849 4.93834C39.1217 5.51054 42.3189 6.99919 45.3894 9.36217C46.5923 10.2882 48.1547 8.60274 46.9675 7.6895C43.5756 5.07933 40.0042 3.42772 36.3523 2.78181C30.7775 1.7967 24.2756 3.08989 17.5476 6.52311C12.533 9.08201 9.17959 11.8927 9.03967 12.0108C8.59104 12.3894 8.51956 13.0769 8.8952 13.5191C9.38692 14.4301 11.2504 17.7164 14.3523 21.2544C16.1809 23.3404 18.1092 25.1257 20.104 26.5929C19.5373 27.0218 18.9857 27.4704 18.4519 27.9423C15.6009 30.4605 13.4181 33.4309 11.985 36.6783C10.7181 39.5476 10.0368 42.6343 9.99879 45.8157C9.93593 51.0182 11.6053 56.0358 14.8273 60.3268C17.9749 64.5181 22.3751 67.7362 27.5519 69.6327C29.0007 70.1624 29.9167 68.1276 28.4669 67.5966C26.5913 66.9095 24.8292 66.0292 23.2039 64.9823C23.4118 63.9413 23.8939 60.195 21.1382 56.3168C20.7524 55.7744 21.9057 53.644 22.5941 52.3714C23.3048 51.0599 24.0383 49.704 24.381 48.4273C24.745 47.0709 24.3354 45.9325 23.1973 45.1337C22.3619 44.5473 21.2684 44.2438 20.3048 43.976C19.6787 43.802 18.969 43.6052 18.7155 43.4143C18.1934 43.0193 17.3407 41.5594 16.6553 40.3871C15.8949 39.0866 15.171 37.8488 14.4319 37.0866C16.0952 33.5197 18.7667 30.3635 22.1125 27.9488C25.1688 29.8288 28.657 31.1261 32.3647 31.3888C28.0649 34.3973 26.6739 38.2393 28.6621 41.9298C30.9838 46.2392 35.7627 45.5507 39.9789 44.9442C40.7084 44.8389 41.4632 44.7304 42.1861 44.6489C42.4573 44.6182 42.5389 44.6851 42.5936 44.7285C43.5168 45.4701 43.4894 49.0118 43.4696 51.5982C43.4428 55.1756 43.4174 58.5548 44.8931 60.2898C45.6459 61.1742 46.7059 61.6264 47.9484 61.6264C48.6931 61.6264 49.5021 61.4644 50.3508 61.1357C54.0205 59.7166 57.8351 55.4457 57.2532 52.0665C56.7447 49.1121 56.4081 47.1602 57.2015 45.5869C57.935 44.1307 59.7083 42.7826 63.2005 41.0623C63.6187 42.7629 63.8296 44.5322 63.8078 46.3472C63.7333 52.5426 60.9908 58.3411 56.0862 62.6738C50.6047 67.516 42.9009 69.9074 35.2801 69.1489C33.7274 68.9969 33.4592 71.1786 35.014 71.3333C43.3556 72.1628 51.7894 69.5444 57.7875 64.2448C63.1574 59.501 66.1595 53.1537 66.2411 46.3705C66.3496 37.3769 61.2392 29.409 53.4598 24.819C55.0673 23.784 56.2647 22.8891 56.9287 22.3695C59.765 24.207 62.2809 26.4706 64.3741 29.1078C69.3988 35.4401 71.3916 43.1593 69.9864 50.8452C67.0842 66.7108 50.4298 77.488 32.857 74.8663C24.345 73.597 16.8906 69.4112 11.8658 63.0789C6.84059 56.7471 4.84783 49.0269 6.25356 41.3415C6.50602 39.9586 4.1067 39.5956 3.85323 40.9836C2.34104 49.2485 4.48487 57.55 9.88727 64.3593C15.2907 71.1676 23.3078 75.6693 32.4605 77.0348C34.3747 77.32 36.2909 77.4609 38.194 77.4609C45.3874 77.4609 52.3851 75.444 58.3482 71.5855C65.8898 66.7062 70.8755 59.4681 72.3867 51.2032C73.4943 45.1469 72.6371 39.071 69.9747 33.577C71.2035 33.2497 73.2946 32.6143 75.5849 31.5816C80.3663 29.4255 83.7075 26.5471 85.2461 23.259C86.7862 19.9699 86.7431 15.8006 85.1219 11.2019ZM14.5029 41.4125C15.4083 42.9625 16.2645 44.4273 17.1542 45.0993C17.7843 45.575 18.6613 45.8185 19.5895 46.0762C21.9675 46.7363 22.2438 47.0604 22.0157 47.9095C21.7358 48.9537 21.0606 50.2007 20.4082 51.4059C19.1515 53.7277 17.9648 55.9195 19.0896 57.5034C20.685 59.7482 20.9582 61.9583 20.9308 63.333C13.6837 57.4319 10.7328 48.1114 13.4323 39.64C13.7902 40.1939 14.1663 40.8376 14.5029 41.4125ZM73.3706 19.8212L69.9128 12.2543C71.5954 10.8334 73.5476 9.76408 75.2103 9.01106C76.6267 8.36928 77.9741 7.88954 79.0549 7.54942L73.3706 19.8212ZM81.2981 8.40132C81.7812 9.33882 82.3414 10.5478 82.8199 11.9142C83.3446 13.4138 83.8262 15.2724 83.922 17.211L75.8186 20.2299L81.2981 8.40132ZM66.7506 16.2012C67.1095 15.4349 67.5733 14.7244 68.1092 14.0684L72.0455 22.6813L68.5132 30.3085C68.0169 29.3577 67.4324 28.109 66.9366 26.6904C65.9415 23.8499 65.102 19.7236 66.7506 16.2012ZM74.5457 29.5935C73.1826 30.2115 71.8818 30.6793 70.8223 31.0167L74.4879 23.1033L83.8186 19.6266C83.6832 20.5705 83.4252 21.5062 83.0049 22.4034C81.3569 25.9259 77.4951 28.2582 74.5457 29.5935ZM30.6721 28.9682C30.2422 28.8922 29.8179 28.7993 29.3997 28.6935L42.8659 19.78L53.954 21.7314C49.9148 24.6052 40.0848 30.6335 30.6721 28.9682ZM18.3652 22.094C15.4853 19.2911 13.3745 16.2941 12.1624 14.3751L26.2729 16.8594L18.3652 22.094ZM20.8573 7.43498L26.7611 14.7066L12.5593 12.2067C14.3473 10.9318 17.2986 9.01793 20.8573 7.43498ZM30.2812 15.3264L23.1238 6.5103C25.2666 5.71516 27.5666 5.0894 29.9244 4.81108L39.8258 17.0059L30.2812 15.3264ZM29.5239 17.4316L39.6154 19.2078L26.6637 27.7803C24.2213 26.7618 22.0233 25.2974 20.1 23.6696L29.5239 17.4316ZM62.5395 38.887C58.153 40.9973 56.0051 42.6549 54.9862 44.6768C53.8917 46.848 54.2927 49.1785 54.8478 52.4039C55.1758 54.3059 52.6725 57.8476 49.3927 59.1161C48.1791 59.5853 47.3147 59.5299 46.8225 58.9508C45.8558 57.8146 45.8821 54.3759 45.9029 51.6133C45.9318 47.791 45.9572 44.4901 44.2108 43.087C43.5827 42.5825 42.7792 42.3692 41.8865 42.4681C41.1215 42.5542 40.3454 42.6659 39.5956 42.7739C35.123 43.4175 32.3085 43.6752 30.8505 40.9685C28.4882 36.5845 33.2701 33.3371 35.4357 32.1446C35.8768 31.902 36.2859 31.6159 36.6661 31.2973C41.9002 30.7324 46.8458 28.7045 51.2531 26.1644C56.5374 29.0153 60.5939 33.5271 62.5395 38.887Z" fill="white"/>
</svg>
