<svg width="89" height="80" viewBox="0 0 89 80" fill="none" xmlns="http://www.w3.org/2000/svg">
<g clip-path="url(#clip0)">
<path d="M85.0152 6.53173C84.5816 6.01689 83.7675 5.91627 83.197 6.30798C82.6267 6.6997 82.5156 7.43486 82.9494 7.95017C87.617 13.4958 87.1195 21.1867 81.7664 26.2374C77.73 30.0453 71.7391 31.4645 66.2409 30.0777C66.2203 30.0717 66.1992 30.067 66.1781 30.0619C65.4003 29.8625 64.6324 29.6074 63.8816 29.2942C61.7813 28.4186 59.364 28.3978 57.2487 29.2363L55.6796 29.8583L56.3764 28.3945C57.2797 26.4975 57.2397 24.3227 56.2673 22.4278C53.5126 17.062 54.7684 10.651 59.3922 6.47517C64.541 1.82502 72.7319 1.01486 78.8689 4.54908C79.4728 4.89673 80.2752 4.73673 80.6607 4.19095C81.0459 3.64533 80.8683 2.9208 80.2641 2.57267C76.819 0.588766 72.6686 -0.295453 68.5744 0.0861097C64.4208 0.472203 60.5081 2.15267 57.557 4.81767C56.4701 5.79939 55.5457 6.8883 54.7842 8.05048H23.9961C22.6454 8.05048 21.5465 9.04236 21.5465 10.2613V15.9817C21.5465 17.0872 22.4499 18.0035 23.6243 18.1661L22.1672 25.4697C21.8791 26.9161 21.7332 28.3931 21.7332 29.86V34.4216C21.7927 35.9733 24.2693 35.9722 24.3282 34.4216V29.86C24.3282 28.532 24.4605 27.1944 24.7211 25.8849L26.2554 18.1942H52.3273C52.5304 19.9724 53.0519 21.7369 53.9126 23.4136C54.5753 24.7049 54.6044 26.183 53.9924 27.4686L52.3807 30.8536C52.1061 31.4306 52.2477 32.0894 52.7412 32.5317C53.2369 32.977 53.9728 33.0953 54.6027 32.8447L58.2917 31.3822C59.7272 30.8131 61.3681 30.8277 62.7939 31.4222C63.3696 31.6622 63.9544 31.8703 64.545 32.0528V57.315H36.018L41.2566 50.7788C41.9439 49.9213 42.218 48.873 42.028 47.827C41.8385 46.7828 41.21 45.8703 40.2584 45.2577C38.4867 44.1164 36.0365 44.3453 34.5603 45.7905L24.4791 55.658C24.4297 55.7063 24.378 55.7517 24.3282 55.7992V39.9992C24.2687 38.4475 21.792 38.4486 21.7332 39.9992V57.7072C21.7332 57.7324 21.7356 57.7567 21.7373 57.7816C21.194 58.1119 20.6278 58.4133 20.0382 58.6811L13.9879 61.428C12.737 61.996 11.3986 62.3619 10.0098 62.5156L1.59103 63.4488C0.768255 63.5399 0.147583 64.1733 0.147583 64.9224V78.5144C0.147583 78.9491 0.3573 79.3605 0.723093 79.6431C1.08837 79.9261 1.57511 80.0488 2.04559 79.9814L16.7796 77.8955C18.6108 77.6363 20.374 77.1139 22.0199 76.3433L29.3821 72.8966C30.0184 72.5988 30.2667 71.8914 29.9369 71.317C29.6071 70.7424 28.8236 70.518 28.1879 70.816L20.8256 74.2627C19.4284 74.9167 17.9318 75.3599 16.3775 75.5802L2.7424 77.5105V65.6824L10.3256 64.8419C12.0109 64.6552 13.6352 64.2111 15.1532 63.522L21.2035 60.7752C23.1571 59.8883 24.9007 58.7013 26.3862 57.2475L36.4675 47.38C37.0595 46.8008 38.0414 46.7088 38.7519 47.1661C39.1364 47.4136 39.3904 47.783 39.4671 48.2063C39.5442 48.6313 39.4333 49.0567 39.1546 49.4047L33.7213 56.1836C33.1837 56.8542 33.1088 57.7292 33.5258 58.467C33.9414 59.2022 34.7663 59.6589 35.6785 59.6589H67.2369C69.6473 59.7499 69.6455 62.8794 67.2369 62.9695H51.1062C47.0783 62.9695 43.057 63.8553 39.4773 65.5313L33.5562 68.303C32.92 68.6008 32.6717 69.3081 33.0013 69.8827C33.3313 70.4572 34.1143 70.6817 34.7505 70.3838L40.6716 67.612C43.8839 66.1083 47.4922 65.3133 51.1063 65.3133H67.2371C73.091 65.0931 73.0865 57.5333 67.2371 57.3152H67.1403V32.6666C73.0898 33.6574 79.3243 31.931 83.6413 27.858C89.882 21.9699 90.4601 13.0008 85.0152 6.53173ZM24.1416 15.8506V10.3944H53.5145C52.7536 12.136 52.3247 13.9827 52.2442 15.8506H24.1416Z" fill="white"/>
<path d="M78.1313 11.3249L67.6885 19.7913L62.8559 15.5307C62.3428 15.0783 61.5213 15.0877 61.0209 15.5507C60.5203 16.0139 60.5303 16.7558 61.043 17.208L66.7448 22.2349C67.2345 22.6663 68.0099 22.6804 68.5179 22.2683L79.8645 13.0691C80.3978 12.6368 80.442 11.8958 79.9633 11.4143C79.4847 10.9324 78.6644 10.8922 78.1313 11.3249Z" fill="white"/>
</g>
<defs>
<clipPath id="clip0">
<rect width="88.5932" height="80" fill="white" transform="translate(0.147583)"/>
</clipPath>
</defs>
</svg>
