<svg width="90" height="80" viewBox="0 0 90 80" fill="none" xmlns="http://www.w3.org/2000/svg">
<g clip-path="url(#clip0)">
<path d="M80.3551 39.8579L77.9917 31.9191L80.3401 23.977C80.4597 23.5725 80.3313 23.1411 80.0032 22.8453L73.5598 17.0375L71.1965 9.09863C71.076 8.69426 70.7258 8.37863 70.2778 8.27067L61.4829 6.15004L55.0393 0.342087C54.7111 0.0463067 54.2331 -0.0691618 53.7857 0.0399005L44.9938 2.17396L36.1989 0.0534942C35.7512 -0.0543181 35.2733 0.0613067 34.9456 0.357869L28.5141 6.17614L19.7223 8.31035C19.2745 8.41895 18.9251 8.7352 18.8054 9.13973L16.457 17.0817L10.0253 22.9002C9.69759 23.1964 9.57006 23.628 9.69032 24.0324L12.0538 31.9698L10.5982 36.893C10.4134 37.5183 10.8249 38.1604 11.5174 38.3275C12.2099 38.4948 12.921 38.1228 13.106 37.4975L14.6514 32.2709C14.7102 32.0722 14.71 31.863 14.6508 31.6644L12.3915 24.077L18.5394 18.5153C18.7005 18.3697 18.8161 18.1885 18.8748 17.9899L21.1199 10.398L29.5238 8.35801C29.7437 8.30457 29.9444 8.19988 30.1053 8.05426L36.2532 2.49255L44.6602 4.51958C44.8801 4.5727 45.1118 4.57239 45.3319 4.51911L53.736 2.47911L59.8951 8.03082C60.0564 8.17613 60.2571 8.28051 60.477 8.33363L68.8842 10.3607L71.1434 17.9494C71.2025 18.148 71.3186 18.3292 71.4797 18.4746L77.639 24.0263L75.3941 31.6178C75.3353 31.8166 75.3354 32.0258 75.3946 32.2244L77.6539 39.8133L71.5059 45.3751C71.3449 45.5207 71.2294 45.702 71.1705 45.9006L68.9256 53.4921L60.522 55.532C60.3019 55.5854 60.101 55.6903 59.9401 55.8359L53.7922 61.3976L45.3859 59.3693C45.1653 59.316 44.9334 59.3162 44.713 59.3698L36.3095 61.4112L30.1503 55.8595C29.9889 55.7142 29.7882 55.6096 29.5682 55.5567L27.8095 55.1323C27.8083 55.132 27.8073 55.1315 27.8061 55.1314C27.8049 55.131 27.8036 55.1309 27.8024 55.1306L21.1614 53.5282L18.9021 45.9409C18.8428 45.7422 18.7268 45.5611 18.5656 45.4157L14.1895 41.472C13.682 41.0148 12.8603 41.0156 12.3543 41.4737C11.8481 41.9318 11.8489 42.6737 12.3562 43.1309L16.486 46.8528L18.8493 54.7899C18.9698 55.1942 19.3198 55.5098 19.7676 55.6178L25.8806 57.0928L20.6416 74.7446C20.5188 75.1582 20.6558 75.5996 20.9988 75.8954C21.3417 76.1912 21.8361 76.2947 22.2882 76.1647L30.6461 73.7657L36.5553 79.6172C36.8043 79.8638 37.154 79.9994 37.5143 79.9994C37.6164 79.9994 37.7195 79.9885 37.8211 79.9661C38.282 79.8649 38.6451 79.5446 38.7677 79.1308L43.8492 62.0063L45.0516 61.7143L46.1902 61.989L51.2772 79.1308C51.3999 79.5444 51.7629 79.8647 52.2239 79.9661C52.3256 79.9885 52.4286 79.9994 52.5307 79.9994C52.8909 79.9994 53.2406 79.8638 53.4896 79.6172L59.3992 73.7655L67.7573 76.1647C68.2094 76.2947 68.7039 76.1912 69.0467 75.8954C69.3897 75.5996 69.5267 75.1583 69.4038 74.7446L67.2998 67.654C67.1144 67.029 66.4026 66.6581 65.7103 66.8254C65.018 66.9929 64.6072 67.6356 64.7927 68.2607L66.2827 73.2823L59.3935 71.3046C58.9109 71.166 58.3828 71.2937 58.0414 71.6318L53.1702 76.4554L49.0843 62.6876L53.8464 63.8365C54.2939 63.9445 54.7721 63.8287 55.0999 63.5321L61.5313 57.7138L61.6544 57.684L63.2771 63.1543C63.4323 63.6781 63.9567 64.0234 64.5297 64.0234C64.6409 64.0234 64.7539 64.0104 64.8662 63.9832C65.5585 63.8157 65.9695 63.1732 65.784 62.5481L64.1606 57.0757L70.323 55.5798C70.7708 55.471 71.1202 55.1549 71.2399 54.7504L73.5883 46.8084L80.0201 40.99C80.3479 40.6937 80.4754 40.2622 80.3551 39.8579ZM36.8748 76.4552L32.004 71.6319C31.6625 71.294 31.1347 71.1663 30.652 71.3048L23.7628 73.2821L28.3882 57.6976L28.5631 57.7398L35.0063 63.5476C35.2529 63.7698 35.5839 63.8901 35.9232 63.8901C36.0355 63.8901 36.1489 63.877 36.2601 63.8499L40.9537 62.7099L36.8748 76.4552Z" fill="white"/>
<path d="M45.0229 9.73767C48.6309 9.73767 52.1055 10.4266 55.3504 11.7852C56.0012 12.0577 56.7723 11.802 57.0737 11.215C57.3753 10.6278 57.0926 9.93111 56.4425 9.65892C52.8527 8.15595 49.0108 7.39392 45.0231 7.39392C32.7439 7.39392 21.956 14.8558 18.7684 25.5456C18.7671 25.5492 18.7661 25.553 18.7649 25.5567C18.7613 25.5689 18.7573 25.581 18.7536 25.593C18.1437 27.6549 17.8343 29.7922 17.8343 31.9455C17.8343 37.5602 19.8766 42.8435 23.7401 47.2235C23.7427 47.2264 23.7455 47.2292 23.7479 47.232C23.7517 47.2363 23.7555 47.2406 23.7595 47.2449C28.9516 53.125 36.6998 56.497 45.0229 56.497C60.0149 56.497 72.2117 45.4833 72.2117 31.9455C72.2117 24.6214 68.6289 17.7338 62.382 13.0486C61.8307 12.6352 61.0125 12.7035 60.5544 13.2014C60.0964 13.6994 60.1722 14.4381 60.7237 14.8517C66.3749 19.0902 69.6162 25.3206 69.6162 31.9456C69.6162 44.1911 58.5838 54.1535 45.0229 54.1535C38.4331 54.1535 32.2415 51.8164 27.6495 47.666H35.526C36.2429 47.666 36.8237 47.1413 36.8237 46.4941V45.1658C37.9908 45.3078 38.8936 45.5786 39.757 46.1763C40.5536 46.7278 41.5375 47.0316 42.5271 47.0316H56.7698C58.9497 47.0316 60.7231 45.4302 60.7231 43.4617C60.7231 42.7716 60.5051 42.1264 60.1281 41.5797C61.1389 40.9324 61.7998 39.8675 61.7998 38.666C61.7998 37.9385 61.5575 37.2611 61.1421 36.6961C62.0783 36.0427 62.6824 35.0189 62.6824 33.8702C62.6824 33.146 62.4422 32.4713 62.0301 31.908C62.9726 31.255 63.5815 30.2277 63.5815 29.0744C63.5815 27.106 61.8081 25.5045 59.6282 25.5045H51.7147C52.6605 22.3983 52.5023 19.1524 51.2438 15.4277C50.7751 14.0402 49.3758 13.108 47.7615 13.108C46.7671 13.108 45.804 13.4816 45.1191 14.1328C44.4343 14.7842 44.0709 15.6724 44.1225 16.5694C44.36 20.6978 42.3286 22.0669 39.2535 24.1391C38.481 24.6595 37.6548 25.217 36.8215 25.8577C36.7986 25.2286 36.2281 24.7245 35.5258 24.7245H21.7592C25.1393 15.8274 34.4722 9.73767 45.0229 9.73767ZM40.8058 26.0172C44.0034 23.8622 47.0241 21.8269 46.7145 16.4477C46.6995 16.1858 46.8012 15.9367 47.0012 15.7464C47.2011 15.5563 47.471 15.4516 47.7614 15.4516C48.2189 15.4516 48.63 15.7228 48.761 16.1114C50.0573 19.9481 50.0406 23.1697 48.708 26.25C48.5521 26.6106 48.6035 27.0175 48.8452 27.3372C49.087 27.6569 49.4882 27.8481 49.9168 27.8481H59.6278C60.3766 27.8481 60.9856 28.3981 60.9856 29.0742C60.9856 29.7503 60.3766 30.3003 59.6278 30.3003H56.3245C55.6076 30.3003 55.0267 30.825 55.0267 31.4722C55.0267 32.1194 55.6076 32.6441 56.3245 32.6441H58.7288C59.4773 32.6441 60.0866 33.1941 60.0866 33.87C60.0866 34.5461 59.4773 35.0961 58.7288 35.0961H56.3245C55.6076 35.0961 55.0267 35.6208 55.0267 36.268C55.0267 36.9152 55.6076 37.4399 56.3245 37.4399H57.8459C58.5947 37.4399 59.2037 37.9899 59.2037 38.666C59.2037 39.342 58.5947 39.892 57.8459 39.892H55.4415C54.7246 39.892 54.1437 40.4167 54.1437 41.0639C54.1437 41.7111 54.7246 42.2358 55.4415 42.2358H56.7693C57.518 42.2358 58.1271 42.7858 58.1271 43.4619C58.1271 44.138 57.518 44.688 56.7693 44.688H42.5266C42.1047 44.688 41.6817 44.556 41.3356 44.3164C39.8658 43.2986 38.3251 42.9538 36.8232 42.8035V29.0856C38.1016 27.8406 39.4744 26.9145 40.8058 26.0172ZM34.2282 28.9038C34.2282 28.9049 34.2281 28.9058 34.2281 28.9067V44.1549C34.2281 44.156 34.2282 44.1569 34.2282 44.1578V45.3219H25.3916C22.1436 41.4492 20.4297 36.8367 20.4297 31.9453C20.4297 30.2977 20.6319 28.6613 21.0271 27.068H34.2282V28.9038Z" fill="white"/>
</g>
<defs>
<clipPath id="clip0">
<rect width="88.5932" height="80" fill="white" transform="translate(0.726135)"/>
</clipPath>
</defs>
</svg>
