<svg width="50" height="50" viewBox="0 0 50 50" fill="none" xmlns="http://www.w3.org/2000/svg">
<g clip-path="url(#clip0)">
<path d="M48.1294 22.0638L24.9869 45.2085L1.84436 22.0638C1.41261 21.6467 0.724499 21.6588 0.307432 22.0905C-0.0993441 22.5117 -0.0993441 23.1795 0.307432 23.6006L24.2195 47.5127C24.6439 47.937 25.3319 47.937 25.7564 47.5127L49.6684 23.6006C50.0855 23.1689 50.0735 22.4808 49.6417 22.0637C49.2205 21.6568 48.5528 21.6568 48.1315 22.0637L48.1294 22.0638Z" fill="white"/>
<path d="M48.1294 2.49944L24.9869 25.6441L1.84436 2.49944C1.41261 2.08237 0.724499 2.0944 0.307432 2.52614C-0.0993441 2.94738 -0.0993441 3.61512 0.307432 4.03637L24.2195 27.9484C24.6439 28.3727 25.3319 28.3727 25.7564 27.9484L49.6684 4.03637C50.1002 3.6193 50.1121 2.93128 49.6951 2.49944C49.2781 2.0677 48.59 2.05578 48.1582 2.47274C48.1491 2.48151 48.1403 2.49037 48.1315 2.49944H48.1294Z" fill="white"/>
<path d="M24.9865 47.8323C24.698 47.8328 24.4211 47.7187 24.2169 47.5149L0.304891 23.6029C-0.112176 23.1711 -0.100152 22.483 0.331588 22.066C0.752834 21.6592 1.42057 21.6592 1.84171 22.066L24.9864 45.2085L48.1289 22.0638C48.5606 21.6468 49.2487 21.6588 49.6658 22.0905C50.0727 22.5118 50.0727 23.1795 49.6658 23.6007L25.7539 47.5128C25.5505 47.7167 25.2745 47.8316 24.9865 47.8323Z" fill="white"/>
<path d="M24.9865 28.268C24.698 28.2685 24.4211 28.1543 24.2169 27.9505L0.304891 4.03851C-0.112176 3.60676 -0.100152 2.91865 0.331588 2.50158C0.752834 2.09481 1.42057 2.09481 1.84181 2.50158L24.9865 25.6441L48.129 2.49944C48.546 2.0677 49.234 2.05578 49.6659 2.47274C50.0977 2.88971 50.1096 3.57783 49.6926 4.00967C49.6838 4.01874 49.675 4.0276 49.6659 4.03637L25.7539 27.9484C25.5505 28.1523 25.2745 28.2672 24.9865 28.268Z" fill="white"/>
</g>
<defs>
<clipPath id="clip0">
<rect width="50" height="50" fill="white"/>
</clipPath>
</defs>
</svg>
