<svg width="230" height="230" viewBox="0 0 230 230" fill="none" xmlns="http://www.w3.org/2000/svg">
<path d="M178.585 57.4122C175.276 55.4793 173.471 51.606 174.135 47.7299C175.344 40.6649 174.086 34.2998 170.028 30.0942C164.605 24.4739 155.463 24.032 145.961 27.9592C141.252 29.9056 135.988 27.4021 134.304 22.4448C130.462 11.1283 123.15 3.48486 114.761 3.48486C106.371 3.48486 99.0591 11.1283 95.2168 22.4443C93.5335 27.4016 88.2698 29.9051 83.5601 27.9587C74.0578 24.0315 64.9155 24.4734 59.4935 30.0938C55.4361 34.2993 54.1769 40.6649 55.3868 47.7294C56.0507 51.6055 54.245 55.4788 50.9367 57.4117C22.1717 74.2152 3.36212 102.068 3.36212 133.586C3.36212 184.909 53.2368 226.515 114.761 226.515C176.284 226.515 226.159 184.909 226.159 133.586C226.159 102.068 207.35 74.2152 178.585 57.4122Z" fill="#FDFFDC"/>
<path d="M59.199 133.586C59.199 106.499 73.0913 82.1198 95.2563 65.1342C103.628 58.7183 109.187 49.1475 111.157 38.5503C111.769 35.2565 113.143 32.3612 115.331 30.0938C120.753 24.4734 129.896 24.0315 139.397 27.9587C139.414 27.9657 139.431 27.9699 139.448 27.9764C137.132 27.0341 135.205 25.0951 134.304 22.4443C130.462 11.1283 123.15 3.48486 114.761 3.48486C106.371 3.48486 99.0591 11.1283 95.2168 22.4443C93.5335 27.4016 88.2698 29.9051 83.5601 27.9587C74.0578 24.0315 64.9155 24.4734 59.4935 30.0938C55.4361 34.2993 54.1769 40.6649 55.3868 47.7294C56.0507 51.6055 54.245 55.4788 50.9367 57.4117C22.1717 74.2152 3.36212 102.068 3.36212 133.586C3.36212 184.909 53.2368 226.515 114.761 226.515C124.402 226.515 133.757 225.492 142.679 223.572C94.6672 213.236 59.199 176.866 59.199 133.586Z" fill="#FFFF9C"/>
<path d="M79.6255 131.044C86.7853 131.044 92.5894 126.253 92.5894 120.343C92.5894 114.433 86.7853 109.642 79.6255 109.642C72.4657 109.642 66.6616 114.433 66.6616 120.343C66.6616 126.253 72.4657 131.044 79.6255 131.044Z" fill="#FF9B87"/>
<path d="M149.896 131.044C157.056 131.044 162.86 126.253 162.86 120.343C162.86 114.433 157.056 109.642 149.896 109.642C142.736 109.642 136.931 114.433 136.931 120.343C136.931 126.253 142.736 131.044 149.896 131.044Z" fill="#FF9B87"/>
<path d="M81.0103 112.183C82.8671 112.183 84.3724 110.623 84.3724 108.698C84.3724 107.093 85.6325 105.787 87.1809 105.787C88.7293 105.787 89.9894 107.093 89.9894 108.698C89.9894 110.623 91.4947 112.183 93.3515 112.183C95.2083 112.183 96.7136 110.623 96.7136 108.698C96.7136 103.25 92.437 98.8177 87.1809 98.8177C81.9248 98.8177 77.6481 103.25 77.6481 108.698C77.6481 110.623 79.1535 112.183 81.0103 112.183Z" fill="black"/>
<path d="M142.34 98.8182C137.083 98.8182 132.807 103.25 132.807 108.699C132.807 110.623 134.313 112.184 136.169 112.184C138.026 112.184 139.531 110.623 139.531 108.699C139.531 107.094 140.792 105.788 142.34 105.788C143.888 105.788 145.148 107.094 145.148 108.699C145.148 110.623 146.654 112.184 148.511 112.184C150.367 112.184 151.873 110.623 151.873 108.699C151.873 103.25 147.597 98.8182 142.34 98.8182Z" fill="black"/>
<path d="M110.75 113.885C109.53 112.434 107.406 112.283 106.006 113.547C104.606 114.812 104.46 117.013 105.68 118.464C107.971 121.188 111.28 122.75 114.76 122.75C118.24 122.75 121.55 121.188 123.84 118.464C125.06 117.013 124.914 114.812 123.514 113.547C122.114 112.283 119.99 112.434 118.771 113.885C117.758 115.09 116.296 115.781 114.76 115.781C113.224 115.781 111.763 115.089 110.75 113.885Z" fill="black"/>
<path d="M39.6086 197.818C18.4029 180.805 6.72426 157.993 6.72426 133.586C6.72426 104.565 23.8693 77.2238 52.5873 60.4482C57.1504 57.783 59.6061 52.427 58.6974 47.1207C57.6399 40.947 58.7669 35.7755 61.8708 32.5582C66.1084 28.1659 73.7508 27.6567 82.3148 31.1959C85.4424 32.4881 88.8445 32.4091 91.8955 30.9724C94.9586 29.5301 97.2641 26.9123 98.3884 23.6017C101.872 13.3428 108.145 6.9697 114.761 6.9697C121.376 6.9697 127.65 13.3428 131.133 23.6013C132.257 26.9119 134.563 29.5297 137.626 30.9719C140.677 32.4086 144.079 32.4881 147.207 31.1954C155.771 27.6562 163.413 28.1655 167.651 32.5578C170.754 35.775 171.881 40.947 170.824 47.1207C169.915 52.4265 172.371 57.7825 176.934 60.4477C180.65 62.6185 184.238 65.0082 187.598 67.5512C189.097 68.6859 191.201 68.3458 192.296 66.7915C193.391 65.2368 193.062 63.0567 191.563 61.922C187.991 59.2197 184.18 56.6808 180.236 54.3762C178.156 53.1616 177.034 50.7357 177.445 48.3395C178.898 39.8588 177.108 32.5039 172.405 27.6302C166.207 21.2055 155.856 20.1183 144.716 24.7224C143.306 25.3051 141.776 25.2712 140.408 24.6272C139.028 23.9771 137.987 22.7914 137.476 21.2878C133.017 8.15687 124.314 0 114.761 0C105.208 0 96.5038 8.15687 92.0457 21.2878C91.5351 22.7909 90.4942 23.9771 89.1143 24.6272C87.7462 25.2712 86.2162 25.3051 84.8059 24.722C73.6665 20.1187 63.3152 21.2055 57.1167 27.6302C52.4142 32.5039 50.6247 39.8588 52.0771 48.339C52.4878 50.7357 51.3662 53.1616 49.2861 54.3762C18.4249 72.404 0 102.015 0 133.586C0 147.036 3.22854 160.05 9.59552 172.265C15.7115 183.998 24.4243 194.449 35.4929 203.329C36.1052 203.821 36.8297 204.059 37.5483 204.059C38.5529 204.059 39.5467 203.594 40.2093 202.707C41.3461 201.184 41.0771 198.996 39.6086 197.818Z" fill="black"/>
<path d="M202.153 71.0662C200.808 69.7401 198.68 69.7954 197.4 71.1898C196.12 72.5842 196.173 74.7904 197.519 76.117C213.82 92.1858 222.797 112.596 222.797 133.586C222.797 182.906 174.332 223.03 114.761 223.03C91.3853 223.03 69.1352 216.942 50.4158 205.422C48.819 204.44 46.7564 204.985 45.8083 206.64C44.8606 208.295 45.3865 210.433 46.9833 211.416C66.7409 223.573 90.1781 230 114.761 230C145.28 230 174.004 220.06 195.639 202.012C217.488 183.785 229.521 159.484 229.521 133.586C229.521 110.668 219.802 88.4645 202.153 71.0662Z" fill="black"/>
<path d="M118.693 63.7653V51.3611C118.693 49.4365 117.187 47.8762 115.33 47.8762C113.474 47.8762 111.968 49.4365 111.968 51.3611V63.7653C111.968 65.6898 113.474 67.2501 115.33 67.2501C117.187 67.2501 118.693 65.6898 118.693 63.7653Z" fill="black"/>
<path d="M154.003 66.7832C155.611 65.8209 156.162 63.6896 155.234 62.0229L148.325 49.6187C147.396 47.952 145.34 47.381 143.732 48.3432C142.124 49.3055 141.573 51.4369 142.501 53.1035L149.411 65.5077C150.033 66.6257 151.164 67.2506 152.326 67.2506C152.896 67.2511 153.474 67.1006 154.003 66.7832Z" fill="black"/>
<path d="M87.02 53.1039C87.9484 51.4373 87.3974 49.3059 85.7894 48.3436C84.1814 47.3809 82.1252 47.9524 81.1968 49.6191L74.2874 62.0233C73.359 63.69 73.9099 65.8213 75.5179 66.7836C76.0473 67.1005 76.6256 67.251 77.1958 67.251C78.3578 67.251 79.4879 66.6256 80.1106 65.5081L87.02 53.1039Z" fill="black"/>
<path d="M80.6476 187.891C88.075 187.891 94.0961 181.65 94.0961 173.952C94.0961 166.253 88.075 160.012 80.6476 160.012C73.2202 160.012 67.1991 166.253 67.1991 173.952C67.1991 181.65 73.2202 187.891 80.6476 187.891Z" fill="#FDFFBF"/>
<path d="M114.761 197.649C119.712 197.649 123.726 193.489 123.726 188.357C123.726 183.224 119.712 179.064 114.761 179.064C109.809 179.064 105.795 183.224 105.795 188.357C105.795 193.489 109.809 197.649 114.761 197.649Z" fill="#FDFFBF"/>
<path d="M174.746 169.305C179.697 169.305 183.711 165.145 183.711 160.012C183.711 154.88 179.697 150.719 174.746 150.719C169.794 150.719 165.78 154.88 165.78 160.012C165.78 165.145 169.794 169.305 174.746 169.305Z" fill="#FDFFBF"/>
</svg>
