<svg width="50" height="50" viewBox="0 0 50 50" fill="none" xmlns="http://www.w3.org/2000/svg">
<path d="M38.8897 23.049L16.6391 0.798774C16.1245 0.283738 15.4375 0 14.705 0C13.9724 0 13.2855 0.283738 12.7708 0.798774L11.1322 2.43697C10.066 3.50444 10.066 5.23939 11.1322 6.30523L29.8166 24.9896L11.1115 43.6948C10.5969 44.2098 10.3127 44.8964 10.3127 45.6285C10.3127 46.3614 10.5969 47.048 11.1115 47.5634L12.7501 49.2012C13.2651 49.7163 13.9517 50 14.6842 50C15.4167 50 16.1037 49.7163 16.6184 49.2012L38.8897 26.9307C39.4056 26.414 39.6889 25.7242 39.6873 24.9909C39.6889 24.2547 39.4056 23.5653 38.8897 23.049Z" fill="#F4A460"/>
</svg>
